<svg width="1200" height="900" viewBox="0 0 1200 900" fill="none" xmlns="http://www.w3.org/2000/svg">
  <rect width="1200" height="900" rx="48" fill="#050508"/>
  <rect x="52" y="52" width="1096" height="796" rx="44" fill="url(#bg)" stroke="rgba(255,255,255,.12)"/>
  <circle cx="310" cy="265" r="230" fill="#8B5CF6" opacity=".18"/>
  <circle cx="880" cy="590" r="280" fill="#A66A3F" opacity=".18"/>
  <rect x="140" y="146" width="920" height="160" rx="30" fill="rgba(255,255,255,.055)" stroke="rgba(255,255,255,.13)"/>
  <rect x="140" y="370" width="280" height="318" rx="32" fill="rgba(255,255,255,.045)" stroke="rgba(255,255,255,.12)"/>
  <rect x="460" y="370" width="280" height="318" rx="32" fill="rgba(255,255,255,.035)" stroke="rgba(255,255,255,.1)"/>
  <rect x="780" y="370" width="280" height="318" rx="32" fill="rgba(255,255,255,.045)" stroke="rgba(255,255,255,.12)"/>
  <path d="M215 520c36-62 78-62 114 0" stroke="#E7D5BF" stroke-width="18" stroke-linecap="round"/>
  <path d="M535 520c36-62 78-62 114 0" stroke="#CBB7FF" stroke-width="18" stroke-linecap="round"/>
  <path d="M855 520c36-62 78-62 114 0" stroke="#E7D5BF" stroke-width="18" stroke-linecap="round"/>
  <text x="188" y="236" fill="#F8F1EA" font-family="Georgia, serif" font-size="74" font-weight="700">Oath Cafe</text>
  <text x="600" y="238" fill="#BBAFE0" font-family="Arial, sans-serif" font-size="24">Scroll-led cafe website prototype</text>
  <text x="182" y="750" fill="#F5F0FF" font-family="Arial, sans-serif" font-size="28" font-weight="700">Coffee</text>
  <text x="502" y="750" fill="#F5F0FF" font-family="Arial, sans-serif" font-size="28" font-weight="700">Menu</text>
  <text x="822" y="750" fill="#F5F0FF" font-family="Arial, sans-serif" font-size="28" font-weight="700">Visit</text>
  <defs>
    <linearGradient id="bg" x1="52" y1="52" x2="1148" y2="848" gradientUnits="userSpaceOnUse">
      <stop stop-color="#0D0B13"/>
      <stop offset=".55" stop-color="#07070D"/>
      <stop offset="1" stop-color="#17100D"/>
    </linearGradient>
  </defs>
</svg>
